<svg xmlns="http://www.w3.org/2000/svg" width="480" height="845" viewBox="0 0 480 845" role="img" aria-labelledby="mobile-title mobile-desc"><title id="mobile-title">Payment evolved. Dining expanded.</title><desc id="mobile-desc">Cash, card and contactless on a rising path. Dine-in branches into takeout, drive-through and delivery. A conceptual illustration.</desc><rect width="480" height="845" fill="#F7F5F2"/><g font-family="Arial, Helvetica, sans-serif"><text x="30" y="45" font-size="11" fill="#8471B5" text-anchor="start" letter-spacing="1.5">01 / HOW WE PAY</text><text x="30" y="92" font-size="31" fill="#292724" text-anchor="start" letter-spacing="0">Payment evolved.</text><path d="M80 237C150 237 170 200 240 200S330 163 400 163" fill="none" stroke="#D1C8DD" stroke-width="1.5"/><g><rect x="42.0" y="203.0" width="76" height="76" rx="24" fill="#E7E1DA" opacity=".6"/><rect x="42.0" y="199.0" width="76" height="76" rx="24" fill="#FFFEFC" stroke="#EDE8E2"/><g transform="translate(52 209)" fill="none" stroke="#35302C" stroke-width="2" stroke-linecap="round" stroke-linejoin="round"><rect x="5" y="13" width="46" height="30" rx="4" fill="#E9E3DB"/><path d="M5 23q10 0 10-10m26 0q0 10 10 10M5 33q10 0 10 10m26 0q0-10 10-10"/><circle cx="28" cy="28" r="7" fill="#C8B7E8"/></g><text x="80" y="304.0" font-size="17" fill="#77716B" text-anchor="middle" letter-spacing="0">Cash</text></g><g><rect x="202.0" y="166.0" width="76" height="76" rx="24" fill="#E7E1DA" opacity=".6"/><rect x="202.0" y="162.0" width="76" height="76" rx="24" fill="#FFFEFC" stroke="#EDE8E2"/><g transform="translate(212 172)" fill="none" stroke="#35302C" stroke-width="2" stroke-linecap="round" stroke-linejoin="round"><rect x="4" y="10" width="48" height="36" rx="6" fill="#DCD2EF"/><path d="M4 22h48"/><rect x="11" y="30" width="10" height="8" rx="2" fill="#FFF" stroke="none"/><path d="M32 35h11"/></g><text x="240" y="267.0" font-size="17" fill="#77716B" text-anchor="middle" letter-spacing="0">Card</text></g><g><rect x="362.0" y="129.0" width="76" height="76" rx="24" fill="#E7E1DA" opacity=".6"/><rect x="362.0" y="125.0" width="76" height="76" rx="24" fill="#FFFEFC" stroke="#EDE8E2"/><g transform="translate(372 135)" fill="none" stroke="#35302C" stroke-width="2" stroke-linecap="round" stroke-linejoin="round"><rect x="5" y="5" width="26" height="46" rx="6" fill="#C6B2E5"/><path d="M14 11h8m-7 33h6M38 22q5 6 0 12m6-18q10 12 0 24m6-30q15 18 0 36"/></g><text x="400" y="230.0" font-size="17" fill="#77716B" text-anchor="middle" letter-spacing="0">Contactless</text></g><path d="M30 345H450" stroke="#DED9D2"/><text x="30" y="391" font-size="11" fill="#8471B5" text-anchor="start" letter-spacing="1.5">02 / HOW WE DINE</text><text x="30" y="438" font-size="31" fill="#292724" text-anchor="start" letter-spacing="0">Dining expanded.</text><path d="M88 615C204 615 230 520 358 520M88 615H358M88 615C204 615 230 737 358 737" fill="none" stroke="#D1C8DD" stroke-width="1.5"/><g><rect x="50.0" y="581.0" width="76" height="76" rx="24" fill="#E7E1DA" opacity=".6"/><rect x="50.0" y="577.0" width="76" height="76" rx="24" fill="#FFFEFC" stroke="#EDE8E2"/><g transform="translate(60 587)" fill="none" stroke="#35302C" stroke-width="2" stroke-linecap="round" stroke-linejoin="round"><circle cx="29" cy="29" r="16" fill="#E9E3DB"/><circle cx="29" cy="29" r="10" stroke="#B9ADA0"/><path d="M4 8v14q0 5 6 5V8M4 18h6m0 9v22M52 8v41m0-41q-7 9-7 20h7"/></g><text x="88" y="682.0" font-size="17" fill="#77716B" text-anchor="middle" letter-spacing="0">Dine-in</text></g><g><rect x="320.0" y="484.0" width="76" height="76" rx="24" fill="#E7E1DA" opacity=".6"/><rect x="320.0" y="480.0" width="76" height="76" rx="24" fill="#FFFEFC" stroke="#EDE8E2"/><g transform="translate(330 490)" fill="none" stroke="#35302C" stroke-width="2" stroke-linecap="round" stroke-linejoin="round"><path d="M12 17h32l4 33H8z" fill="#DCD2EF"/><path d="M20 18v-5a8 8 0 0 1 16 0v5m-17 9q9 10 18 0"/></g><text x="358" y="585.0" font-size="17" fill="#77716B" text-anchor="middle" letter-spacing="0">Takeout</text></g><g><rect x="320.0" y="595.0" width="76" height="76" rx="24" fill="#E7E1DA" opacity=".6"/><rect x="320.0" y="591.0" width="76" height="76" rx="24" fill="#FFFEFC" stroke="#EDE8E2"/><g transform="translate(330 601)" fill="none" stroke="#35302C" stroke-width="2" stroke-linecap="round" stroke-linejoin="round"><path d="m10 24 5-12h26l5 12" fill="#DCD2EF"/><rect x="6" y="23" width="44" height="22" rx="7" fill="#F4F0FA"/><path d="M13 45v5m30-5v5M7 21H3m46 0h4m-33 14h16"/><circle cx="14" cy="32" r="2" fill="#292724" stroke="none"/><circle cx="42" cy="32" r="2" fill="#292724" stroke="none"/></g><text x="358" y="696.0" font-size="17" fill="#77716B" text-anchor="middle" letter-spacing="0">Drive-through</text></g><g><rect x="320.0" y="706.0" width="76" height="76" rx="24" fill="#E7E1DA" opacity=".6"/><rect x="320.0" y="702.0" width="76" height="76" rx="24" fill="#FFFEFC" stroke="#EDE8E2"/><g transform="translate(330 712)" fill="none" stroke="#35302C" stroke-width="2" stroke-linecap="round" stroke-linejoin="round"><circle cx="12" cy="41" r="10" fill="#F3EFF8"/><circle cx="45" cy="41" r="10" fill="#F3EFF8"/><path d="m12 41 12-22 10 22H12m22 0 8-22h-8m9 22-8-27h-6m-8 5h10"/><rect x="5" y="5" width="16" height="14" rx="3" fill="#C6B2E5"/></g><text x="358" y="807.0" font-size="17" fill="#77716B" text-anchor="middle" letter-spacing="0">Delivery</text></g></g></svg>